<svg width="32" height="32" viewBox="0 0 32 32" fill="none" xmlns="http://www.w3.org/2000/svg">
  <defs>
    <linearGradient id="grad" x1="0%" y1="0%" x2="100%" y2="100%">
      <stop offset="0%" style="stop-color:#6366f1;stop-opacity:1" />
      <stop offset="50%" style="stop-color:#8b5cf6;stop-opacity:1" />
      <stop offset="100%" style="stop-color:#a855f7;stop-opacity:1" />
    </linearGradient>
  </defs>
  
  <!-- Background circle -->
  <circle cx="16" cy="16" r="16" fill="url(#grad)"/>
  
  <!-- Clean geometric M -->
  <path d="M6 8 L6 24 L8 24 L8 16 L12 20 L16 20 L20 16 L20 24 L22 24 L22 8 L20 8 L16 14 L12 14 L8 8 Z" fill="white"/>
  
  <!-- Clean geometric S -->
  <path d="M24 8 C24 6, 25 5, 27 5 C29 5, 30 6, 30 8 C30 9, 29 10, 28 10 L28 12 C29 12, 30 13, 30 14 C30 16, 29 17, 27 17 C25 17, 24 16, 24 14 L26 14 C26 15, 26 15, 27 15 C28 15, 28 14, 28 13 C28 12, 27 11, 26 11 L26 9 C25 9, 24 8, 24 8 Z" fill="white"/>
</svg>
